# xmcd
#
# Track frame offsets: 
#        150
#        10995
#        29715
#        51735
#        69629
#        86474
#        103318
#        117313
#        135432
#        148827
#        165146
#        178016
#        195386
#        212831
#        226750
#        232944
#        241239
#
# Disc length: 3381 seconds
#
# Revision: 0
# Processed by: cddbd v1.5.2PL0 Copyright (c) Steve Scherf et al.
# Submitted via: ExactAudioCopy v1.1
#
DISCID=ea0d3311
DTITLE=Marie Huana - Du bist mein Karma
DYEAR=2016
DGENRE=
TTITLE0=Soundcheck
TTITLE1=Anderswo
TTITLE2=Lobet den Herrn
TTITLE3=Automobil
TTITLE4=Stammlokal
TTITLE5=Früher war alles viel besser
TTITLE6=Du bist mein Karma
TTITLE7=Kavalier
TTITLE8=Bleib bei mir
TTITLE9=Denglish
TTITLE10=Rentner
TTITLE11=Wo bleibt die Sonne?
TTITLE12=Niemals allein zu Haus
TTITLE13=Ich bin zu alt
TTITLE14=Wir haben Durst
TTITLE15=Geh nach Haus
TTITLE16=Vater unser
EXTD=
EXTT0=
EXTT1=
EXTT2=
EXTT3=
EXTT4=
EXTT5=
EXTT6=
EXTT7=
EXTT8=
EXTT9=
EXTT10=
EXTT11=
EXTT12=
EXTT13=
EXTT14=
EXTT15=
EXTT16=
PLAYORDER=
